<?xml version="1.0" standalone="no"?>
<!DOCTYPE svg PUBLIC "-//W3C//DTD SVG 20010904//EN"
 "http://www.w3.org/TR/2001/REC-SVG-20010904/DTD/svg10.dtd">
<svg version="1.0" xmlns="http://www.w3.org/2000/svg"
 width="343.000000pt" height="331.000000pt" viewBox="0 0 343.000000 331.000000"
 preserveAspectRatio="xMidYMid meet">

<g transform="translate(0.000000,331.000000) scale(0.100000,-0.100000)"
fill="#000000" stroke="none">
<path d="M1319 3214 c-9 -12 -5 -13 22 -8 44 9 45 10 14 16 -14 3 -30 -1 -36
-8z"/>
<path d="M1468 3213 c6 -2 18 -2 25 0 6 3 1 5 -13 5 -14 0 -19 -2 -12 -5z"/>
<path d="M1960 3210 c-20 -6 -21 -8 -5 -8 11 0 29 3 40 8 25 11 -1 11 -35 0z"/>
<path d="M2118 3213 c7 -3 16 -2 19 1 4 3 -2 6 -13 5 -11 0 -14 -3 -6 -6z"/>
<path d="M1525 3200 c11 -5 27 -9 35 -9 9 0 8 4 -5 9 -11 5 -27 9 -35 9 -9 0
-8 -4 5 -9z"/>
<path d="M1268 3193 c7 -3 16 -2 19 1 4 3 -2 6 -13 5 -11 0 -14 -3 -6 -6z"/>
<path d="M2220 3185 c46 -18 64 -17 25 0 -16 8 -37 14 -45 14 -8 0 1 -7 20
-14z"/>
<path d="M1605 3176 c11 -9 25 -20 32 -26 15 -12 23 -13 23 -2 0 5 -17 16 -37
25 -28 13 -33 13 -18 3z"/>
<path d="M1865 3180 c-3 -5 -2 -10 4 -10 5 0 13 5 16 10 3 6 2 10 -4 10 -5 0
-13 -4 -16 -10z"/>
<path d="M1187 3165 c-12 -8 -14 -15 -8 -20 6 -3 11 -1 11 5 0 6 4 9 9 5 5 -3
12 -1 15 4 10 16 -8 20 -27 6z"/>
<path d="M1825 3161 c-3 -5 -2 -12 3 -15 5 -3 9 1 9 9 0 17 -3 19 -12 6z"/>
<path d="M2345 3102 c40 -43 52 -52 39 -29 -13 23 -39 49 -59 60 -11 5 -2 -8
20 -31z"/>
<path d="M1707 3119 c7 -7 15 -10 18 -7 3 3 -2 9 -12 12 -14 6 -15 5 -6 -5z"/>
<path d="M1754 3115 c-12 -9 -14 -14 -6 -15 7 0 10 -5 7 -10 -4 -6 -3 -10 2
-9 19 3 34 -2 29 -9 -3 -5 11 -17 31 -26 31 -15 35 -15 24 -2 -8 9 -17 16 -22
16 -4 0 -20 11 -34 24 -24 23 -25 25 -8 35 10 6 13 11 7 11 -5 0 -19 -7 -30
-15z"/>
<path d="M1109 3091 c-13 -11 -22 -21 -19 -23 3 -2 16 6 29 19 29 28 22 30
-10 4z"/>
<path d="M1711 3084 c0 -11 3 -14 6 -6 3 7 2 16 -1 19 -3 4 -6 -2 -5 -13z"/>
<path d="M1056 3025 c-13 -19 -13 -23 -2 -19 8 3 16 14 19 25 7 25 3 24 -17
-6z"/>
<path d="M1638 3043 c7 -3 16 -2 19 1 4 3 -2 6 -13 5 -11 0 -14 -3 -6 -6z"/>
<path d="M2396 3043 c15 -11 39 -56 36 -66 -1 -5 2 -6 8 -2 13 8 -22 68 -42
73 -9 2 -9 1 -2 -5z"/>
<path d="M1578 3013 c-8 -10 -4 -11 21 -2 17 6 31 12 31 14 0 9 -42 -1 -52
-12z"/>
<path d="M1540 2990 c0 -5 5 -10 11 -10 5 0 7 5 4 10 -3 6 -8 10 -11 10 -2 0
-4 -4 -4 -10z"/>
<path d="M1030 2975 c-11 -13 -10 -14 4 -9 9 3 16 10 16 15 0 13 -6 11 -20 -6z"/>
<path d="M1960 2965 c14 -8 30 -14 35 -14 6 0 -1 6 -15 14 -14 8 -29 14 -35
14 -5 0 1 -6 15 -14z"/>
<path d="M1460 2949 c-19 -10 -28 -19 -20 -19 8 0 26 9 40 20 31 25 25 24 -20
-1z"/>
<path d="M1005 2940 c-3 -6 1 -7 9 -4 18 7 21 14 7 14 -6 0 -13 -4 -16 -10z"/>
<path d="M1010 2910 c0 -6 7 -10 15 -10 8 0 15 2 15 4 0 2 -7 6 -15 10 -8 3
-15 1 -15 -4z"/>
<path d="M1420 2910 c-9 -6 -10 -10 -3 -10 6 0 15 5 18 10 8 12 4 12 -15 0z"/>
<path d="M2467 2903 c3 -7 6 -13 8 -13 2 0 5 6 8 13 3 8 -1 14 -8 14 -7 0 -11
-6 -8 -14z"/>
<path d="M2517 2909 c13 -12 31 -15 30 -4 -1 5 -10 10 -20 10 -10 1 -14 -2
-10 -6z"/>
<path d="M925 2900 c-3 -6 1 -7 9 -4 18 7 21 14 7 14 -6 0 -13 -4 -16 -10z"/>
<path d="M2190 2900 c-8 -5 -10 -10 -5 -10 6 0 17 5 25 10 8 5 11 10 5 10 -5
0 -17 -5 -25 -10z"/>
<path d="M2428 2903 c7 -3 16 -2 19 1 4 3 -2 6 -13 5 -11 0 -14 -3 -6 -6z"/>
<path d="M730 2890 c-8 -5 -12 -11 -10 -14 3 -2 14 2 24 10 22 15 10 19 -14 4z"/>
<path d="M980 2888 c0 -6 -10 -22 -22 -35 -14 -15 -17 -22 -7 -18 19 7 54 65
40 65 -6 0 -11 -5 -11 -12z"/>
<path d="M1348 2893 c6 -2 9 -10 6 -15 -4 -7 -2 -8 5 -4 13 9 5 26 -12 25 -9
0 -8 -2 1 -6z"/>
<path d="M2121 2891 c-8 -5 -9 -11 -3 -15 5 -3 12 1 16 9 6 17 6 18 -13 6z"/>
<path d="M2748 2883 c7 -3 16 -2 19 1 4 3 -2 6 -13 5 -11 0 -14 -3 -6 -6z"/>
<path d="M680 2870 c0 -5 7 -7 15 -4 8 4 15 8 15 10 0 2 -7 4 -15 4 -8 0 -15
-4 -15 -10z"/>
<path d="M1300 2855 c-7 -8 -15 -13 -19 -11 -4 3 -13 0 -21 -5 -26 -16 22 -5
55 14 18 10 24 16 14 17 -9 0 -22 -7 -29 -15z"/>
<path d="M2169 2855 c18 -8 36 -15 40 -15 13 1 -45 29 -59 29 -8 0 0 -6 19
-14z"/>
<path d="M2506 2855 c4 -8 10 -12 15 -9 11 6 2 24 -11 24 -5 0 -7 -7 -4 -15z"/>
<path d="M2810 2861 c0 -8 41 -23 47 -17 2 1 -8 8 -22 14 -14 6 -25 8 -25 3z"/>
<path d="M608 2833 c-60 -50 -83 -73 -73 -73 6 0 29 18 52 39 23 22 50 44 60
50 10 6 13 11 6 11 -6 0 -26 -12 -45 -27z"/>
<path d="M2531 2824 c0 -11 3 -14 6 -6 3 7 2 16 -1 19 -3 4 -6 -2 -5 -13z"/>
<path d="M2850 2826 c0 -2 7 -7 16 -10 8 -3 12 -2 9 4 -6 10 -25 14 -25 6z"/>
<path d="M1200 2800 c-8 -5 -12 -11 -10 -14 3 -2 14 2 24 10 22 15 10 19 -14
4z"/>
<path d="M2900 2802 c0 -7 4 -12 10 -12 5 0 16 -15 25 -34 9 -18 28 -44 42
-57 23 -22 25 -22 15 -3 -6 11 -18 26 -26 33 -9 8 -14 17 -11 21 2 4 -9 20
-25 35 -17 16 -30 23 -30 17z"/>
<path d="M2280 2790 c0 -5 5 -10 10 -10 6 0 10 5 10 10 0 6 -4 10 -10 10 -5 0
-10 -4 -10 -10z"/>
<path d="M904 2768 c-4 -13 -11 -26 -16 -29 -7 -4 -6 -9 1 -13 6 -4 13 4 17
19 3 14 10 25 15 25 5 0 9 5 9 10 0 19 -19 10 -26 -12z"/>
<path d="M2556 2781 c-4 -6 -2 -11 3 -11 6 0 11 -5 11 -11 0 -17 41 -81 48
-75 2 3 0 12 -7 20 -6 8 -20 31 -30 51 -11 23 -21 33 -25 26z"/>
<path d="M2316 2772 c-3 -4 4 -9 15 -9 23 -2 25 3 4 10 -8 4 -16 3 -19 -1z"/>
<path d="M1060 2725 c-30 -19 -51 -35 -47 -35 13 0 85 39 92 50 4 6 11 8 16 5
5 -4 9 -1 9 4 0 17 -11 13 -70 -24z"/>
<path d="M515 2730 c-10 -11 -16 -22 -13 -25 3 -3 13 6 22 20 20 30 16 32 -9
5z"/>
<path d="M2405 2716 c11 -8 24 -12 29 -8 5 3 1 9 -10 13 -31 12 -39 10 -19 -5z"/>
<path d="M867 2706 c-4 -10 -1 -13 8 -9 8 3 12 9 9 14 -7 12 -11 11 -17 -5z"/>
<path d="M2450 2700 c0 -5 5 -10 11 -10 5 0 7 5 4 10 -3 6 -8 10 -11 10 -2 0
-4 -4 -4 -10z"/>
<path d="M970 2669 c0 -5 -5 -7 -12 -3 -7 4 -8 3 -4 -4 4 -6 13 -9 21 -6 8 4
12 10 9 15 -7 12 -14 11 -14 -2z"/>
<path d="M2620 2662 c0 -5 14 -25 31 -43 30 -33 30 -33 12 -4 -22 37 -43 60
-43 47z"/>
<path d="M830 2645 c-19 -23 -8 -25 14 -4 11 11 15 19 9 19 -6 0 -16 -7 -23
-15z"/>
<path d="M930 2650 c0 -5 5 -10 11 -10 5 0 7 5 4 10 -3 6 -8 10 -11 10 -2 0
-4 -4 -4 -10z"/>
<path d="M2531 2647 c2 -1 13 -9 24 -17 19 -14 19 -14 6 3 -7 9 -18 17 -24 17
-6 0 -8 -1 -6 -3z"/>
<path d="M456 2618 c-8 -30 -7 -38 2 -38 4 0 8 14 9 30 3 36 -2 39 -11 8z"/>
<path d="M854 2604 c-17 -13 -41 -26 -52 -29 -25 -4 -62 -27 -62 -38 0 -5 14
1 30 13 17 12 30 19 30 15 0 -10 54 22 74 44 25 27 18 26 -20 -5z"/>
<path d="M2580 2616 c0 -2 7 -6 15 -10 8 -3 15 -1 15 4 0 6 -7 10 -15 10 -8 0
-15 -2 -15 -4z"/>
<path d="M2640 2580 c20 -13 33 -13 25 0 -3 6 -14 10 -23 10 -15 0 -15 -2 -2
-10z"/>
<path d="M2690 2541 c0 -5 5 -13 10 -16 6 -3 10 -2 10 4 0 5 -4 13 -10 16 -5
3 -10 2 -10 -4z"/>
<path d="M715 2530 c-3 -5 -1 -10 4 -10 6 0 11 5 11 10 0 6 -2 10 -4 10 -3 0
-8 -4 -11 -10z"/>
<path d="M1670 2530 c0 -5 5 -10 10 -10 6 0 10 5 10 10 0 6 -4 10 -10 10 -5 0
-10 -4 -10 -10z"/>
<path d="M2756 2521 c10 -10 23 -16 27 -14 5 3 0 11 -10 19 -27 20 -39 17 -17
-5z"/>
<path d="M3022 2520 c0 -14 2 -19 5 -12 2 6 2 18 0 25 -3 6 -5 1 -5 -13z"/>
<path d="M441 2468 c-1 -27 3 -48 7 -48 4 0 6 17 4 38 -5 58 -10 62 -11 10z"/>
<path d="M750 2489 c-7 -11 -10 -23 -7 -25 2 -2 9 7 15 21 14 30 7 33 -8 4z"/>
<path d="M1577 2489 c-3 -11 -1 -22 4 -25 5 -3 9 -16 9 -28 0 -30 24 -51 47
-40 16 7 16 8 -4 11 -27 5 -40 50 -19 67 14 9 13 12 -8 22 -21 10 -25 9 -29
-7z"/>
<path d="M1923 2494 c-3 -9 5 -27 22 -44 29 -30 29 -68 0 -56 -8 3 -22 9 -30
12 -8 3 -15 1 -15 -5 0 -12 40 -24 67 -19 30 6 29 48 -3 73 -34 27 -25 49 18
40 21 -5 28 -4 24 4 -11 17 -76 14 -83 -5z"/>
<path d="M1677 2453 c8 -65 13 -67 13 -5 0 29 -4 52 -10 52 -6 0 -7 -19 -3
-47z"/>
<path d="M1742 2488 c-17 -17 -15 -54 4 -72 17 -18 54 -22 54 -6 0 5 -6 7 -13
4 -19 -7 -39 20 -35 48 2 14 12 25 28 29 l25 7 -25 1 c-15 1 -31 -4 -38 -11z"/>
<path d="M2730 2491 c0 -6 4 -13 10 -16 6 -3 7 1 4 9 -7 18 -14 21 -14 7z"/>
<path d="M620 2480 c-18 -12 -2 -12 25 0 13 6 15 9 5 9 -8 0 -22 -4 -30 -9z"/>
<path d="M2820 2486 c0 -2 9 -6 20 -9 11 -3 18 -1 14 4 -5 9 -34 13 -34 5z"/>
<path d="M1472 2454 c-12 -8 -22 -25 -22 -38 0 -42 63 -76 76 -42 3 8 12 12
20 9 12 -4 12 -1 -1 23 -8 16 -15 37 -15 47 0 21 -28 22 -58 1z m48 -30 c12
-31 6 -44 -21 -44 -23 0 -42 39 -27 58 17 20 38 14 48 -14z"/>
<path d="M2870 2460 c0 -5 11 -12 25 -16 14 -3 25 -10 25 -14 0 -4 7 -10 14
-13 10 -4 13 -1 10 7 -6 16 -74 49 -74 36z"/>
<path d="M3018 2431 c-2 -28 0 -37 8 -31 9 8 8 70 -1 70 -2 0 -5 -18 -7 -39z"/>
<path d="M588 2453 c7 -3 16 -2 19 1 4 3 -2 6 -13 5 -11 0 -14 -3 -6 -6z"/>
<path d="M552 2443 c-6 -2 -10 -9 -6 -14 8 -14 21 -11 21 6 0 8 -1 15 -1 14
-1 0 -7 -3 -14 -6z"/>
<path d="M2034 2415 c-20 -31 -10 -63 23 -71 34 -9 57 6 61 40 7 55 -53 78
-84 31z m66 -4 c12 -23 5 -47 -17 -55 -33 -13 -57 36 -31 62 18 18 36 15 48
-7z"/>
<path d="M2167 2381 c-31 -55 -34 -76 -12 -85 16 -6 21 9 6 18 -5 3 4 31 21
61 16 30 25 55 20 55 -5 0 -21 -22 -35 -49z"/>
<path d="M515 2410 c-16 -7 -17 -9 -3 -9 9 -1 20 4 23 9 7 11 7 11 -20 0z"/>
<path d="M1350 2405 c-7 -8 -21 -15 -32 -15 -10 0 -21 -7 -24 -15 -4 -8 -12
-15 -20 -15 -10 0 -8 -10 8 -37 27 -48 27 -47 34 -40 4 4 -1 18 -10 31 -17 27
-12 56 10 56 7 0 21 -13 31 -30 9 -16 21 -30 25 -30 12 0 10 8 -8 35 -9 14
-14 32 -10 40 9 25 34 17 51 -15 9 -16 20 -30 26 -30 6 0 0 18 -12 40 -24 42
-48 51 -69 25z"/>
<path d="M2966 2407 c3 -10 9 -15 12 -12 3 3 0 11 -7 18 -10 9 -11 8 -5 -6z"/>
<path d="M461 2398 c0 -9 -4 -25 -7 -35 -5 -17 -5 -17 6 0 6 10 9 25 7 35 -4
15 -5 15 -6 0z"/>
<path d="M691 2394 c0 -11 3 -14 6 -6 3 7 2 16 -1 19 -3 4 -6 -2 -5 -13z"/>
<path d="M3035 2370 c1 -11 5 -23 10 -27 4 -5 5 -2 1 5 -4 6 -3 12 3 12 5 0
11 -4 13 -8 4 -11 109 -64 115 -58 2 2 -18 14 -44 26 -26 13 -60 34 -74 47
-24 22 -26 23 -24 3z"/>
<path d="M2803 2361 c0 -11 5 -18 9 -15 4 3 5 11 1 19 -7 21 -12 19 -10 -4z"/>
<path d="M405 2350 c-3 -5 -1 -10 4 -10 6 0 11 5 11 10 0 6 -2 10 -4 10 -3 0
-8 -4 -11 -10z"/>
<path d="M655 2339 c-11 -17 1 -21 15 -4 8 9 8 15 2 15 -6 0 -14 -5 -17 -11z"/>
<path d="M2221 2319 c-24 -33 -22 -56 6 -66 10 -4 21 -11 25 -17 4 -6 8 -8 10
-6 2 3 14 20 26 38 29 40 21 56 -9 19 -11 -15 -27 -27 -35 -27 -22 0 -29 28
-12 48 22 26 30 42 20 42 -4 0 -18 -14 -31 -31z"/>
<path d="M344 2315 c-12 -8 -23 -13 -25 -10 -3 2 -15 -4 -28 -14 -18 -14 -21
-20 -11 -26 8 -5 11 -4 7 2 -4 6 6 16 23 22 34 11 80 41 64 41 -5 0 -19 -7
-30 -15z"/>
<path d="M621 2292 c-10 -23 -10 -25 2 -10 8 10 17 15 20 11 4 -3 7 -1 7 5 0
23 -18 20 -29 -6z"/>
<path d="M1180 2300 c-27 -27 -25 -44 6 -69 33 -26 39 -26 64 -1 26 26 25 44
-2 70 -27 25 -43 25 -68 0z m60 -15 c18 -22 8 -50 -19 -50 -28 0 -47 25 -38
49 8 20 40 21 57 1z"/>
<path d="M2837 2314 c-11 -11 -8 -26 3 -19 6 3 10 1 10 -6 0 -7 3 -10 6 -6 3
3 2 13 -3 22 -5 8 -12 12 -16 9z"/>
<path d="M2344 2265 c1 -5 -7 -22 -20 -38 -24 -29 -23 -57 3 -57 13 0 13 3 3
15 -10 13 -9 19 5 35 10 11 25 18 34 15 12 -3 16 2 16 19 0 18 -5 23 -22 22
-13 0 -21 -5 -19 -11z"/>
<path d="M3195 2270 c-3 -5 -1 -10 4 -10 6 0 11 5 11 10 0 6 -2 10 -4 10 -3 0
-8 -4 -11 -10z"/>
<path d="M443 2190 c0 -47 2 -66 4 -42 2 23 2 61 0 85 -2 23 -4 4 -4 -43z"/>
<path d="M223 2229 c-16 -17 -27 -35 -26 -40 2 -5 -2 -9 -7 -9 -5 0 -10 -5
-10 -11 0 -8 5 -7 15 1 9 7 13 15 10 18 -3 3 12 20 33 39 20 18 31 33 25 33
-7 0 -25 -14 -40 -31z"/>
<path d="M610 2251 c0 -7 -5 -9 -12 -5 -7 5 -8 3 -3 -5 5 -9 10 -10 18 -2 6 6
8 14 4 18 -4 3 -7 1 -7 -6z"/>
<path d="M2875 2240 c-3 -5 -1 -10 4 -10 6 0 11 5 11 10 0 6 -2 10 -4 10 -3 0
-8 -4 -11 -10z"/>
<path d="M3239 2228 c21 -24 41 -29 41 -11 0 4 -3 3 -7 0 -3 -4 -18 3 -32 15
l-26 23 24 -27z"/>
<path d="M1092 2228 c-30 -30 0 -68 38 -48 25 13 30 13 30 -5 0 -7 -8 -18 -17
-24 -10 -5 -15 -12 -12 -16 3 -3 17 3 29 13 35 28 21 56 -25 49 -26 -4 -35 -2
-35 9 0 8 5 14 10 14 6 0 10 5 10 10 0 14 -13 13 -28 -2z"/>
<path d="M2440 2220 c0 -5 5 -10 10 -10 6 0 10 5 10 10 0 6 -4 10 -10 10 -5 0
-10 -4 -10 -10z"/>
<path d="M2896 2207 c3 -10 9 -15 12 -12 3 3 0 11 -7 18 -10 9 -11 8 -5 -6z"/>
<path d="M2380 2165 c-19 -19 -30 -35 -24 -35 10 1 74 56 74 65 0 13 -19 2
-50 -30z"/>
<path d="M3275 2191 c-3 -5 -2 -12 3 -15 5 -3 9 1 9 9 0 17 -3 19 -12 6z"/>
<path d="M531 2133 c-20 -36 -20 -36 -1 -13 11 14 25 31 30 38 6 7 7 12 1 12
-5 0 -19 -17 -30 -37z"/>
<path d="M3300 2160 c0 -5 5 -10 11 -10 5 0 7 5 4 10 -3 6 -8 10 -11 10 -2 0
-4 -4 -4 -10z"/>
<path d="M1022 2138 c-7 -7 -12 -17 -12 -24 0 -7 -5 -14 -11 -16 -6 -2 8 -16
31 -32 23 -15 45 -25 48 -21 4 4 -1 11 -10 16 -24 13 -48 39 -48 50 0 19 30
21 56 4 14 -9 30 -15 36 -13 12 4 -52 48 -69 48 -5 0 -14 -5 -21 -12z"/>
<path d="M2418 2129 c-23 -13 -23 -51 0 -72 24 -22 45 -21 65 1 45 49 -7 105
-65 71z m65 -21 c23 -35 -36 -66 -63 -33 -10 13 -9 19 6 36 20 23 42 22 57 -3z"/>
<path d="M3323 2115 c0 -8 4 -12 9 -9 5 3 6 10 3 15 -9 13 -12 11 -12 -6z"/>
<path d="M2971 2073 c-1 -12 4 -25 9 -28 12 -7 12 2 0 30 -8 19 -9 19 -9 -2z"/>
<path d="M3331 2074 c0 -11 3 -14 6 -6 3 7 2 16 -1 19 -3 4 -6 -2 -5 -13z"/>
<path d="M130 2061 c0 -11 4 -22 9 -25 4 -3 6 6 3 19 -5 30 -12 33 -12 6z"/>
<path d="M468 2037 c7 -8 8 -18 4 -22 -4 -5 -1 -5 6 -1 17 10 15 23 -4 30 -13
5 -14 4 -6 -7z"/>
<path d="M2999 2033 c-13 -16 -12 -17 4 -4 16 13 21 21 13 21 -2 0 -10 -8 -17
-17z"/>
<path d="M952 2028 c-17 -17 -15 -42 6 -61 23 -21 56 -22 76 -1 18 17 21 44 6
44 -5 0 -10 -6 -10 -14 0 -17 -28 -41 -37 -32 -4 4 -2 16 5 26 19 31 15 50
-11 50 -13 0 -28 -5 -35 -12z m38 -7 c0 -17 -12 -41 -21 -41 -10 0 -12 33 -2
43 9 10 23 9 23 -2z"/>
<path d="M2498 2023 c-21 -8 -38 -20 -38 -25 0 -6 8 -7 18 -3 38 17 69 17 75
1 6 -16 -26 -46 -50 -46 -7 0 -13 -4 -13 -10 0 -15 11 -12 48 10 35 22 37 27
20 65 -13 29 -11 29 -60 8z"/>
<path d="M3011 2004 c0 -11 3 -14 6 -6 3 7 2 16 -1 19 -3 4 -6 -2 -5 -13z"/>
<path d="M121 1994 c0 -11 3 -14 6 -6 3 7 2 16 -1 19 -3 4 -6 -2 -5 -13z"/>
<path d="M451 1964 c0 -11 3 -14 6 -6 3 7 2 16 -1 19 -3 4 -6 -2 -5 -13z"/>
<path d="M3040 1971 c0 -6 4 -13 10 -16 6 -3 7 1 4 9 -7 18 -14 21 -14 7z"/>
<path d="M871 1932 c-32 -59 11 -93 59 -47 16 15 33 24 39 21 14 -9 14 -43 1
-51 -12 -8 -13 -25 -2 -25 14 0 33 51 27 71 -10 30 -51 28 -76 -3 -24 -31 -52
-18 -39 18 13 32 6 44 -9 16z"/>
<path d="M416 1919 c-15 -12 -25 -23 -23 -26 3 -2 17 7 32 21 34 31 28 34 -9
5z"/>
<path d="M3061 1924 c0 -11 3 -14 6 -6 3 7 2 16 -1 19 -3 4 -6 -2 -5 -13z"/>
<path d="M2560 1894 c-6 -14 -10 -30 -10 -35 0 -20 -19 -8 -29 19 l-10 27 2
-30 c2 -25 6 -30 27 -30 20 0 26 6 28 28 4 32 20 35 31 5 4 -12 10 -17 13 -12
9 15 -10 54 -27 54 -8 0 -20 -12 -25 -26z"/>
<path d="M442 1886 c1 -14 5 -23 9 -20 7 4 0 44 -7 44 -2 0 -3 -11 -2 -24z"/>
<path d="M3340 1881 c0 -6 4 -13 10 -16 6 -3 7 1 4 9 -7 18 -14 21 -14 7z"/>
<path d="M3107 1835 c3 -8 9 -12 14 -9 12 7 11 11 -5 17 -10 4 -13 1 -9 -8z"/>
<path d="M145 1825 c4 -11 8 -26 8 -32 0 -7 3 -11 6 -8 5 6 24 -26 55 -92 8
-18 18 -33 21 -33 9 0 -25 75 -35 78 -6 2 -10 9 -10 15 0 7 -12 30 -26 52 -15
22 -23 31 -19 20z"/>
<path d="M3316 1815 c-3 -9 -6 -22 -5 -28 0 -7 5 -1 10 12 5 13 8 26 5 28 -2
2 -6 -3 -10 -12z"/>
<path d="M3130 1814 c0 -13 18 -39 24 -34 2 3 -2 14 -10 24 -8 11 -14 16 -14
10z"/>
<path d="M444 1787 c-2 -7 -3 -67 -2 -133 l3 -119 5 133 c3 72 4 132 2 132 -1
0 -5 -6 -8 -13z"/>
<path d="M315 1760 c3 -5 8 -10 11 -10 2 0 4 5 4 10 0 6 -5 10 -11 10 -5 0 -7
-4 -4 -10z"/>
<path d="M3170 1741 c0 -6 4 -13 10 -16 6 -3 7 1 4 9 -7 18 -14 21 -14 7z"/>
<path d="M285 1720 c-3 -5 -3 -10 0 -10 4 0 -1 -7 -9 -16 -9 -8 -16 -21 -16
-27 1 -16 39 34 40 51 0 15 -7 16 -15 2z"/>
<path d="M3197 1686 c20 -26 27 -28 17 -3 -3 8 -12 18 -20 21 -11 4 -10 0 3
-18z"/>
<path d="M3246 1684 c-4 -9 -4 -19 -1 -22 2 -3 7 3 11 12 4 9 4 19 1 22 -2 3
-7 -3 -11 -12z"/>
<path d="M3196 1605 c-15 -25 -27 -48 -24 -50 2 -2 12 12 23 31 10 19 24 33
31 30 7 -3 10 2 7 15 -3 10 -6 19 -7 19 0 0 -14 -20 -30 -45z"/>
<path d="M266 1600 c10 -16 25 -32 33 -35 12 -5 11 -2 -2 13 -9 10 -17 23 -17
29 0 6 -7 14 -15 17 -14 5 -13 1 1 -24z"/>
<path d="M887 1624 c-8 -8 1 -24 14 -24 5 0 9 7 9 15 0 15 -12 20 -23 9z"/>
<path d="M2592 1619 c2 -6 8 -10 13 -10 5 0 11 4 13 10 2 6 -4 11 -13 11 -9 0
-15 -5 -13 -11z"/>
<path d="M3251 1598 c0 -10 8 -22 19 -28 16 -9 18 -8 14 5 -3 8 -10 13 -14 10
-5 -3 -11 3 -13 12 -4 16 -5 17 -6 1z"/>
<path d="M210 1590 c0 -5 5 -10 11 -10 5 0 7 5 4 10 -3 6 -8 10 -11 10 -2 0
-4 -4 -4 -10z"/>
<path d="M192 1565 c4 -4 3 -14 -4 -22 -6 -7 -9 -15 -7 -18 3 -2 10 4 17 15 9
15 9 21 -1 26 -6 4 -9 4 -5 -1z"/>
<path d="M306 1537 c3 -10 9 -15 12 -12 3 3 0 11 -7 18 -10 9 -11 8 -5 -6z"/>
<path d="M3296 1530 c4 -13 13 -30 20 -38 8 -7 11 -18 8 -24 -4 -7 -2 -8 4 -4
12 7 1 37 -28 76 -9 12 -10 10 -4 -10z"/>
<path d="M441 1504 c0 -16 4 -38 9 -49 6 -13 7 -5 3 25 -7 53 -13 66 -12 24z"/>
<path d="M3140 1510 c-6 -11 -8 -20 -6 -20 3 0 10 9 16 20 6 11 8 20 6 20 -3
0 -10 -9 -16 -20z"/>
<path d="M330 1514 c0 -13 18 -39 24 -34 2 3 -2 14 -10 24 -8 11 -14 16 -14
10z"/>
<path d="M346 1458 c3 -5 10 -6 15 -3 13 9 11 12 -6 12 -8 0 -12 -4 -9 -9z"/>
<path d="M3331 1434 c0 -11 3 -14 6 -6 3 7 2 16 -1 19 -3 4 -6 -2 -5 -13z"/>
<path d="M131 1424 c0 -11 3 -14 6 -6 3 7 2 16 -1 19 -3 4 -6 -2 -5 -13z"/>
<path d="M380 1406 c0 -2 7 -9 15 -16 9 -7 15 -8 15 -2 0 5 -7 12 -15 16 -8 3
-15 4 -15 2z"/>
<path d="M956 1401 c-4 -6 -1 -11 6 -11 9 0 9 -3 -2 -10 -9 -6 -10 -10 -3 -10
17 0 23 14 14 29 -6 9 -11 10 -15 2z"/>
<path d="M2537 1399 c7 -7 15 -10 18 -7 3 3 -2 9 -12 12 -14 6 -15 5 -6 -5z"/>
<path d="M3067 1381 c-3 -13 -9 -21 -14 -18 -4 3 -9 -6 -9 -19 -1 -13 0 -24 2
-24 8 0 35 62 31 73 -2 6 -6 1 -10 -12z"/>
<path d="M428 1360 c12 -5 22 -15 22 -21 0 -7 3 -9 6 -6 10 10 -16 37 -35 36
-11 0 -9 -3 7 -9z"/>
<path d="M953 1340 c-6 -23 -19 -26 -26 -7 -3 7 -6 5 -6 -5 -1 -25 36 -23 44
3 5 16 9 18 21 8 12 -10 13 -9 8 5 -9 22 -35 20 -41 -4z"/>
<path d="M420 1345 c0 -5 5 -17 10 -25 5 -8 10 -10 10 -5 0 6 -5 17 -10 25 -5
8 -10 11 -10 5z"/>
<path d="M2530 1338 c0 -20 15 -24 26 -6 5 8 10 6 15 -8 7 -17 8 -17 8 4 1 23
-13 30 -25 11 -4 -8 -9 -7 -15 2 -7 11 -9 10 -9 -3z"/>
<path d="M2510 1291 c0 -18 35 -39 47 -28 2 3 -5 8 -16 12 -12 3 -21 10 -21
15 0 6 12 5 28 0 25 -9 26 -9 8 5 -27 21 -46 19 -46 -4z"/>
<path d="M950 1290 c-13 -9 -13 -10 0 -10 8 0 22 5 30 10 13 9 13 10 0 10 -8
0 -22 -5 -30 -10z"/>
<path d="M462 1265 c0 -16 2 -22 5 -12 2 9 2 23 0 30 -3 6 -5 -1 -5 -18z"/>
<path d="M2998 1268 c-8 -13 -18 -34 -21 -48 l-7 -25 13 26 c6 14 18 34 26 43
8 9 12 19 9 22 -3 2 -12 -6 -20 -18z"/>
<path d="M970 1264 l-25 -15 28 6 c19 4 26 2 22 -5 -3 -5 -13 -10 -21 -10 -8
0 -14 -5 -14 -10 0 -7 6 -7 19 0 32 17 38 11 11 -10 -14 -11 -20 -20 -14 -20
7 0 22 9 35 20 13 10 18 19 12 20 -7 0 -13 6 -13 14 0 23 -13 26 -40 10z"/>
<path d="M486 1250 c9 -36 48 -103 52 -90 2 6 -3 19 -11 28 -8 9 -22 33 -31
52 -10 22 -13 25 -10 10z"/>
<path d="M130 1243 c0 -30 20 -83 32 -83 6 0 7 -7 4 -16 -3 -8 -2 -12 4 -9 14
9 12 21 -5 39 -9 9 -18 30 -20 47 -4 36 -15 52 -15 22z"/>
<path d="M2485 1250 c-9 -15 14 -40 36 -40 21 0 25 20 7 38 -15 15 -35 15 -43
2z m40 -20 c8 -13 -5 -13 -25 0 -13 8 -13 10 2 10 9 0 20 -4 23 -10z"/>
<path d="M3330 1229 c0 -5 5 -7 10 -4 6 3 10 8 10 11 0 2 -4 4 -10 4 -5 0 -10
-5 -10 -11z"/>
<path d="M1003 1192 c-39 -19 -42 -28 -8 -34 33 -7 61 13 49 34 -8 14 -12 14
-41 0z m32 -12 c-3 -5 -11 -10 -16 -10 -6 0 -7 5 -4 10 3 6 11 10 16 10 6 0 7
-4 4 -10z"/>
<path d="M2482 1194 c10 -10 20 -15 24 -12 3 4 -5 12 -18 18 -22 12 -22 12 -6
-6z"/>
<path d="M2947 1186 c-4 -10 -1 -13 8 -9 8 3 12 9 9 14 -7 12 -11 11 -17 -5z"/>
<path d="M2440 1180 c0 -11 33 -30 52 -29 7 0 3 5 -9 11 -13 6 -23 15 -23 20
0 4 -4 8 -10 8 -5 0 -10 -4 -10 -10z"/>
<path d="M3317 1183 c-4 -3 -7 -11 -7 -17 0 -6 5 -5 12 2 6 6 9 14 7 17 -3 3
-9 2 -12 -2z"/>
<path d="M1048 1152 c-16 -10 -28 -20 -28 -24 0 -14 14 -8 45 17 34 28 24 32
-17 7z"/>
<path d="M444 1055 c0 -55 1 -76 3 -47 2 29 2 74 0 100 -2 26 -3 2 -3 -53z"/>
<path d="M2445 1130 c10 -11 13 -20 7 -20 -6 0 -14 5 -17 10 -3 6 -11 10 -17
10 -7 0 -6 -6 2 -15 15 -18 50 -20 50 -2 0 15 -20 37 -34 37 -5 0 -1 -9 9 -20z"/>
<path d="M3296 1134 c-10 -25 1 -29 14 -5 6 12 7 21 1 21 -5 0 -12 -7 -15 -16z"/>
<path d="M552 1115 c6 -13 15 -22 19 -19 11 7 1 31 -16 38 -11 4 -12 0 -3 -19z"/>
<path d="M2917 1119 c-10 -11 -17 -25 -15 -30 2 -5 11 4 21 21 21 35 19 39 -6
9z"/>
<path d="M180 1116 c0 -8 5 -18 10 -21 6 -3 10 1 10 9 0 8 -4 18 -10 21 -5 3
-10 -1 -10 -9z"/>
<path d="M1054 1115 c-10 -8 -14 -15 -8 -15 5 0 19 7 30 15 10 8 14 15 8 15
-5 0 -19 -7 -30 -15z"/>
<path d="M1080 1094 c-32 -31 -19 -31 28 1 27 19 32 25 17 24 -11 0 -31 -11
-45 -25z"/>
<path d="M2395 1095 c17 -13 35 -24 40 -24 6 0 -3 11 -20 24 -16 14 -34 25
-40 25 -5 0 4 -11 20 -25z"/>
<path d="M206 1082 c-3 -5 4 -16 15 -25 10 -9 19 -12 19 -7 0 6 -7 13 -15 16
-8 4 -12 10 -9 15 3 5 3 9 0 9 -3 0 -7 -4 -10 -8z"/>
<path d="M580 1078 c0 -9 5 -20 10 -23 13 -8 13 5 0 25 -8 13 -10 13 -10 -2z"/>
<path d="M1099 1059 c-21 -23 -23 -29 -10 -29 9 1 27 7 41 16 l25 15 -25 -7
c-22 -6 -23 -5 -11 10 24 29 7 25 -20 -5z"/>
<path d="M3251 1076 c-9 -11 -9 -16 1 -22 7 -4 10 -4 6 1 -4 4 -3 14 3 22 6 7
9 13 6 13 -2 0 -10 -6 -16 -14z"/>
<path d="M2364 1066 c-8 -21 3 -36 27 -36 15 0 20 6 17 22 -4 27 -35 37 -44
14z m34 -15 c3 -8 -1 -12 -9 -9 -7 2 -15 10 -17 17 -3 8 1 12 9 9 7 -2 15 -10
17 -17z"/>
<path d="M2885 1059 c-4 -6 -5 -12 -2 -15 2 -3 7 2 10 11 7 17 1 20 -8 4z"/>
<path d="M256 1035 c7 -17 44 -41 44 -28 0 4 -12 16 -25 26 -20 15 -24 15 -19
2z"/>
<path d="M2313 1035 c1 -12 10 -20 22 -20 14 0 19 -6 17 -20 -3 -16 -1 -17 8
-8 17 16 5 43 -19 43 -11 0 -22 6 -25 13 -3 6 -5 3 -3 -8z"/>
<path d="M2853 1028 c-29 -58 -43 -91 -39 -95 3 -3 12 9 21 26 8 17 13 31 10
31 -4 0 1 7 9 16 9 8 16 22 16 30 0 19 -3 18 -17 -8z"/>
<path d="M3225 1040 c3 -5 8 -10 11 -10 2 0 4 5 4 10 0 6 -5 10 -11 10 -5 0
-7 -4 -4 -10z"/>
<path d="M1180 1026 c0 -8 -7 -22 -16 -30 -19 -20 -15 -20 24 0 33 16 44 31
16 20 -12 -4 -15 -2 -10 9 3 8 1 15 -4 15 -6 0 -10 -6 -10 -14z"/>
<path d="M3195 1020 c4 -6 11 -8 16 -5 14 9 11 15 -7 15 -8 0 -12 -5 -9 -10z"/>
<path d="M3144 984 c-26 -24 -27 -25 -4 -13 29 14 55 39 42 39 -5 0 -22 -12
-38 -26z"/>
<path d="M316 992 c-6 -10 44 -36 52 -27 3 3 0 5 -6 5 -6 0 -17 7 -26 15 -8 8
-17 11 -20 7z"/>
<path d="M637 986 c-4 -9 -3 -14 2 -11 5 3 13 -4 16 -16 4 -11 9 -18 12 -16 2
3 -2 17 -10 32 -12 23 -15 25 -20 11z"/>
<path d="M1202 973 c-12 -22 -5 -43 13 -43 17 0 38 36 30 50 -10 16 -33 12
-43 -7z m19 -26 c-8 -8 -11 -7 -11 4 0 20 13 34 18 19 3 -7 -1 -17 -7 -23z"/>
<path d="M2260 985 c0 -11 40 -48 46 -43 3 4 -4 16 -15 27 -21 21 -31 26 -31
16z"/>
<path d="M390 956 c0 -2 8 -10 18 -17 15 -13 16 -12 3 4 -13 16 -21 21 -21 13z"/>
<path d="M1252 939 c-7 -11 -10 -24 -7 -29 10 -16 29 -11 43 10 7 11 8 20 3
20 -5 0 -11 -7 -15 -15 -3 -8 -10 -15 -16 -15 -7 0 -7 6 0 21 15 27 8 34 -8 8z"/>
<path d="M2226 951 c-3 -4 1 -17 10 -27 14 -18 15 -18 8 6 -7 25 -7 25 15 6
22 -20 30 -9 9 12 -14 14 -35 16 -42 3z"/>
<path d="M3028 952 c7 -5 10 -17 7 -28 -6 -17 -6 -18 5 -1 12 19 6 37 -13 37
-9 0 -8 -3 1 -8z"/>
<path d="M432 930 c0 -14 2 -19 5 -12 2 6 2 18 0 25 -3 6 -5 1 -5 -13z"/>
<path d="M457 920 c10 -11 10 -17 0 -28 -10 -13 -9 -14 10 -1 12 7 21 14 20
14 -1 0 -11 7 -22 15 -16 11 -18 11 -8 0z"/>
<path d="M2182 908 c2 -16 11 -24 28 -25 21 -2 22 -1 6 5 -14 6 -16 11 -8 16
15 9 6 26 -14 26 -10 0 -14 -8 -12 -22z"/>
<path d="M679 905 c17 -34 31 -51 31 -39 0 7 -9 22 -21 35 -16 19 -18 20 -10
4z"/>
<path d="M1300 905 c-19 -23 -8 -26 19 -4 16 13 18 19 8 19 -8 0 -20 -7 -27
-15z"/>
<path d="M3012 900 c0 -14 2 -19 5 -12 2 6 2 18 0 25 -3 6 -5 1 -5 -13z"/>
<path d="M1365 879 c-9 -17 -14 -33 -11 -36 3 -3 8 2 12 11 9 23 27 20 19 -4
-10 -32 9 -23 22 10 6 17 7 30 2 30 -5 0 -9 -5 -9 -11 0 -5 -4 -8 -10 -4 -5 3
-7 12 -3 20 10 27 -6 15 -22 -16z"/>
<path d="M2134 896 c-6 -16 11 -46 25 -46 4 0 7 12 6 27 0 30 -22 43 -31 19z"/>
<path d="M2965 890 c-3 -5 -1 -10 4 -10 6 0 11 5 11 10 0 6 -2 10 -4 10 -3 0
-8 -4 -11 -10z"/>
<path d="M2060 885 c0 -13 31 -65 39 -65 10 0 -21 69 -31 70 -5 0 -8 -2 -8 -5z"/>
<path d="M2771 874 c0 -11 3 -14 6 -6 3 7 2 16 -1 19 -3 4 -6 -2 -5 -13z"/>
<path d="M2035 863 c4 -10 10 -26 12 -35 3 -10 11 -18 19 -18 10 0 8 9 -7 35
-22 37 -36 47 -24 18z"/>
<path d="M2100 873 c0 -5 7 -17 15 -27 15 -20 20 -10 9 18 -6 16 -24 22 -24 9z"/>
<path d="M2916 865 c-16 -12 -17 -15 -4 -15 8 0 21 7 28 15 16 19 1 19 -24 0z"/>
<path d="M3020 861 c0 -6 4 -13 10 -16 6 -3 7 1 4 9 -7 18 -14 21 -14 7z"/>
<path d="M560 856 c0 -2 7 -7 16 -10 8 -3 12 -2 9 4 -6 10 -25 14 -25 6z"/>
<path d="M1420 834 c0 -34 34 -29 37 6 3 25 3 25 -7 3 -12 -28 -24 -30 -17 -3
3 11 1 20 -4 20 -5 0 -9 -12 -9 -26z"/>
<path d="M2180 852 c0 -6 -8 -13 -17 -15 -16 -4 -16 -5 -1 -6 18 -1 34 16 24
26 -3 4 -6 1 -6 -5z"/>
<path d="M1476 835 c-11 -30 -6 -39 10 -19 15 19 15 18 11 -3 -3 -13 -1 -23 4
-23 5 0 9 6 9 14 0 8 5 18 10 21 7 4 9 -3 5 -22 -5 -21 -4 -24 4 -13 15 21 13
50 -3 50 -8 0 -21 3 -29 6 -8 3 -17 -2 -21 -11z"/>
<path d="M1995 840 c-10 -17 5 -50 23 -50 15 0 15 2 2 10 -13 8 -13 11 -1 19
7 5 10 14 7 20 -9 14 -23 14 -31 1z"/>
<path d="M2745 830 c-4 -11 -11 -17 -17 -14 -7 5 -8 2 -3 -6 6 -10 11 -9 22 5
13 19 17 35 9 35 -3 0 -8 -9 -11 -20z"/>
<path d="M2877 843 c-10 -9 -9 -23 1 -23 5 0 9 7 9 15 0 17 -1 18 -10 8z"/>
<path d="M726 832 c-2 -4 9 -23 25 -41 16 -19 29 -29 29 -24 0 6 -7 16 -15 23
-8 7 -15 18 -15 26 0 16 -17 27 -24 16z"/>
<path d="M1954 818 c3 -13 6 -26 6 -30 0 -5 8 -8 18 -7 10 0 12 3 5 6 -7 2
-13 16 -13 29 0 13 -5 24 -11 24 -7 0 -9 -9 -5 -22z"/>
<path d="M443 785 c0 -27 2 -38 4 -22 2 15 2 37 0 50 -2 12 -4 0 -4 -28z"/>
<path d="M1580 813 c0 -13 5 -23 10 -23 13 0 13 11 0 30 -8 12 -10 11 -10 -7z"/>
<path d="M1781 798 c-1 -20 4 -40 11 -44 8 -5 9 0 6 14 -4 12 -2 24 2 27 5 3
11 -7 13 -22 4 -26 4 -26 6 5 1 22 -4 32 -13 32 -8 0 -17 6 -19 13 -3 6 -6 -5
-6 -25z"/>
<path d="M1861 818 c1 -7 5 -24 9 -38 7 -22 8 -21 9 13 1 20 -3 37 -9 37 -5 0
-10 -6 -9 -12z"/>
<path d="M1557 813 c-14 -14 -7 -43 11 -42 9 0 12 3 6 5 -7 3 -10 14 -7 24 5
20 2 25 -10 13z"/>
<path d="M1742 788 c2 -17 8 -33 14 -35 6 -2 8 10 6 32 -5 44 -24 47 -20 3z"/>
<path d="M1901 793 l1 -28 8 25 7 25 12 -25 11 -25 -3 25 c-1 14 -9 26 -19 28
-14 3 -18 -3 -17 -25z"/>
<path d="M2835 810 c-16 -7 -17 -9 -3 -9 9 -1 20 4 23 9 7 11 7 11 -20 0z"/>
<path d="M650 802 c0 -9 139 -85 164 -89 11 -2 17 -1 14 3 -3 3 -14 7 -25 9
-10 1 -17 8 -16 13 2 6 -4 9 -12 6 -8 -4 -15 -1 -15 7 0 7 -3 10 -6 6 -3 -3
-28 8 -55 24 -27 15 -49 25 -49 21z"/>
<path d="M1640 788 c0 -16 5 -28 10 -28 13 0 13 20 0 40 -8 12 -10 9 -10 -12z"/>
<path d="M1676 784 c-8 -21 -8 -24 3 -24 5 0 11 9 14 20 6 24 -8 27 -17 4z"/>
<path d="M1712 775 c0 -16 2 -22 5 -12 2 9 2 23 0 30 -3 6 -5 -1 -5 -18z"/>
<path d="M2706 784 c-4 -9 -2 -22 4 -29 5 -6 7 -15 3 -19 -4 -4 1 -4 11 0 18
7 18 8 0 21 -15 11 -16 15 -5 22 8 5 9 11 3 15 -5 3 -13 -1 -16 -10z"/>
<path d="M2787 786 c-4 -10 -1 -13 9 -9 15 6 19 23 5 23 -5 0 -11 -7 -14 -14z"/>
<path d="M2680 719 c0 -5 5 -7 10 -4 6 3 10 8 10 11 0 2 -4 4 -10 4 -5 0 -10
-5 -10 -11z"/>
<path d="M2623 699 c-33 -21 -43 -39 -22 -39 5 0 8 4 4 9 -3 5 5 13 17 17 23
7 56 34 41 34 -4 0 -23 -10 -40 -21z"/>
<path d="M807 689 c7 -7 15 -10 18 -7 3 3 -2 9 -12 12 -14 6 -15 5 -6 -5z"/>
<path d="M850 690 c8 -5 20 -10 25 -10 6 0 3 5 -5 10 -8 5 -19 10 -25 10 -5 0
-3 -5 5 -10z"/>
<path d="M2660 689 c0 -5 5 -7 10 -4 6 3 10 8 10 11 0 2 -4 4 -10 4 -5 0 -10
-5 -10 -11z"/>
<path d="M457 660 c3 -11 7 -20 9 -20 2 0 4 9 4 20 0 11 -4 20 -9 20 -5 0 -7
-9 -4 -20z"/>
<path d="M2565 660 c-3 -5 -1 -10 4 -10 6 0 11 5 11 10 0 6 -2 10 -4 10 -3 0
-8 -4 -11 -10z"/>
<path d="M2635 650 c-16 -17 -16 -20 -3 -15 9 4 19 13 22 21 7 19 2 18 -19 -6z"/>
<path d="M3000 644 c0 -8 5 -12 10 -9 6 4 8 11 5 16 -9 14 -15 11 -15 -7z"/>
<path d="M830 646 c0 -2 7 -7 16 -10 8 -3 12 -2 9 4 -6 10 -25 14 -25 6z"/>
<path d="M2510 630 c-13 -11 -19 -20 -13 -20 5 0 20 9 33 20 13 11 19 20 13
20 -5 0 -20 -9 -33 -20z"/>
<path d="M475 629 c-4 -6 -5 -12 -2 -15 2 -3 7 2 10 11 7 17 1 20 -8 4z"/>
<path d="M496 595 c8 -37 19 -51 29 -34 5 8 4 10 -3 5 -8 -4 -12 0 -12 11 0
10 -5 25 -10 33 -8 11 -9 7 -4 -15z"/>
<path d="M2602 600 c-9 -15 -9 -21 1 -26 6 -4 9 -4 5 1 -4 4 -3 14 4 22 6 7 9
15 7 18 -3 2 -10 -4 -17 -15z"/>
<path d="M2971 593 c3 -20 -2 -34 -11 -28 -5 3 -10 1 -10 -4 0 -18 19 -12 30
8 7 14 7 22 0 26 -6 4 -10 3 -9 -2z"/>
<path d="M2400 570 c-8 -5 -12 -11 -9 -14 3 -3 14 1 25 9 21 16 8 20 -16 5z"/>
<path d="M890 563 c0 -4 5 -15 10 -23 8 -13 10 -13 10 2 0 9 -4 20 -10 23 -5
3 -10 3 -10 -2z"/>
<path d="M1078 554 c13 -9 29 -17 35 -18 7 -1 27 -12 44 -24 36 -25 52 -29 29
-7 -8 8 -19 15 -24 15 -6 0 -12 5 -14 10 -2 6 -14 12 -28 15 -14 3 -26 9 -28
15 -2 5 -11 10 -20 10 -13 0 -11 -4 6 -16z"/>
<path d="M2353 540 c-13 -5 -23 -14 -23 -20 0 -6 11 -3 25 6 14 9 25 18 25 20
0 5 0 5 -27 -6z"/>
<path d="M2930 529 c0 -5 5 -7 10 -4 6 3 10 8 10 11 0 2 -4 4 -10 4 -5 0 -10
-5 -10 -11z"/>
<path d="M556 511 c-3 -4 4 -14 16 -22 11 -8 26 -19 32 -25 6 -5 20 -13 31
-17 15 -5 14 -2 -5 11 -14 9 -35 27 -47 39 -13 12 -25 18 -27 14z"/>
<path d="M2555 510 c3 -5 8 -10 11 -10 2 0 4 5 4 10 0 6 -5 10 -11 10 -5 0 -7
-4 -4 -10z"/>
<path d="M921 495 c9 -11 19 -27 22 -35 5 -13 6 -13 6 1 1 9 -9 24 -21 35 -23
19 -23 19 -7 -1z"/>
<path d="M2891 490 c-15 -13 -18 -20 -9 -20 8 0 23 9 33 20 23 26 7 25 -24 0z"/>
<path d="M2250 485 c-33 -19 -10 -19 26 0 16 8 22 15 14 15 -8 -1 -26 -7 -40
-15z"/>
<path d="M1226 476 c10 -8 21 -12 24 -10 5 6 -21 24 -34 24 -6 0 -1 -6 10 -14z"/>
<path d="M2523 468 c-22 -28 -35 -60 -23 -56 6 2 10 6 8 10 -2 3 6 15 16 27
11 12 17 23 14 26 -3 3 -10 0 -15 -7z"/>
<path d="M963 441 c0 -11 5 -18 9 -15 4 3 5 11 1 19 -7 21 -12 19 -10 -4z"/>
<path d="M1283 448 c15 -5 25 -14 21 -19 -3 -5 -1 -9 5 -9 5 0 18 -3 28 -7 16
-6 16 -5 3 8 -20 21 -55 39 -72 38 -7 0 -1 -5 15 -11z"/>
<path d="M2180 450 c-12 -7 -10 -9 8 -7 12 0 22 5 22 9 0 11 -12 10 -30 -2z"/>
<path d="M2823 443 c-15 -5 -17 -23 -4 -23 5 0 11 7 15 15 3 8 4 15 3 14 -1 0
-8 -3 -14 -6z"/>
<path d="M690 410 c8 -5 20 -10 25 -10 6 0 3 5 -5 10 -8 5 -19 10 -25 10 -5 0
-3 -5 5 -10z"/>
<path d="M2104 404 c-18 -14 -18 -14 6 -3 31 14 36 19 24 19 -6 0 -19 -7 -30
-16z"/>
<path d="M740 400 c0 -6 7 -10 15 -10 8 0 15 2 15 4 0 2 -7 6 -15 10 -8 3 -15
1 -15 -4z"/>
<path d="M1355 401 c-6 -11 13 -26 22 -17 4 3 1 6 -6 6 -7 0 -9 5 -6 10 3 6 4
10 1 10 -3 0 -7 -4 -11 -9z"/>
<path d="M2710 398 c0 -10 17 -9 50 2 21 7 20 8 -12 7 -21 -1 -38 -5 -38 -9z"/>
<path d="M870 390 c8 -5 20 -10 25 -10 6 0 3 5 -5 10 -8 5 -19 10 -25 10 -5 0
-3 -5 5 -10z"/>
<path d="M1033 393 c-34 -13 -5 -20 80 -20 l92 0 -85 6 c-63 5 -76 8 -50 12
33 6 33 6 5 7 -16 0 -36 -2 -42 -5z"/>
<path d="M1168 393 c23 -2 61 -2 85 0 23 2 4 4 -43 4 -47 0 -66 -2 -42 -4z"/>
<path d="M1558 393 c28 -2 76 -2 105 0 28 2 5 3 -53 3 -58 0 -81 -1 -52 -3z"/>
<path d="M1728 393 c6 -2 18 -2 25 0 6 3 1 5 -13 5 -14 0 -19 -2 -12 -5z"/>
<path d="M1838 393 c12 -2 30 -2 40 0 9 3 -1 5 -23 4 -22 0 -30 -2 -17 -4z"/>
<path d="M1918 393 c6 -2 18 -2 25 0 6 3 1 5 -13 5 -14 0 -19 -2 -12 -5z"/>
<path d="M2120 390 c-8 -5 -10 -10 -5 -10 6 0 17 5 25 10 8 5 11 10 5 10 -5 0
-17 -5 -25 -10z"/>
<path d="M2175 391 c-3 -5 -1 -12 4 -15 5 -3 11 1 15 9 6 16 -9 21 -19 6z"/>
<path d="M2273 393 c26 -2 68 -2 95 0 26 2 4 3 -48 3 -52 0 -74 -1 -47 -3z"/>
<path d="M2494 385 c16 -9 34 -14 40 -11 6 2 3 5 -6 5 -10 1 -18 6 -18 11 0 6
-10 10 -22 10 -21 0 -20 -2 6 -15z"/>
<path d="M2549 388 c9 -13 26 -17 55 -16 l41 1 -40 4 c-22 3 -47 10 -55 16
-13 11 -13 10 -1 -5z"/>
<path d="M1478 383 c7 -3 16 -2 19 1 4 3 -2 6 -13 5 -11 0 -14 -3 -6 -6z"/>
<path d="M2440 380 c8 -5 24 -10 34 -10 26 0 18 6 -19 14 -22 5 -26 4 -15 -4z"/>
<path d="M1613 373 c59 -2 154 -2 210 0 56 1 8 3 -108 3 -115 0 -161 -2 -102
-3z"/>
<path d="M1948 373 c6 -2 18 -2 25 0 6 3 1 5 -13 5 -14 0 -19 -2 -12 -5z"/>
<path d="M2208 373 c7 -3 16 -2 19 1 4 3 -2 6 -13 5 -11 0 -14 -3 -6 -6z"/>
<path d="M2283 373 c26 -2 68 -2 95 0 26 2 4 3 -48 3 -52 0 -74 -1 -47 -3z"/>
<path d="M1434 358 c-4 -6 -3 -8 4 -4 5 3 12 1 14 -6 3 -8 6 -9 11 -1 4 6 0
13 -8 17 -8 3 -17 0 -21 -6z"/>
<path d="M2453 345 c-3 -9 -3 -18 -1 -21 3 -3 8 4 11 16 6 23 -1 27 -10 5z"/>
<path d="M1506 316 c10 -8 21 -12 24 -10 5 6 -21 24 -34 24 -6 0 -1 -6 10 -14z"/>
<path d="M1036 311 c-3 -5 1 -11 9 -14 9 -4 12 -1 8 9 -6 16 -10 17 -17 5z"/>
<path d="M1560 290 c8 -5 20 -10 25 -10 6 0 3 5 -5 10 -8 5 -19 10 -25 10 -5
0 -3 -5 5 -10z"/>
<path d="M1900 290 c-9 -6 -10 -10 -3 -10 6 0 15 5 18 10 8 12 4 12 -15 0z"/>
<path d="M2420 287 c0 -8 -7 -22 -15 -31 -8 -8 -11 -17 -6 -20 10 -7 37 52 27
61 -3 3 -6 -1 -6 -10z"/>
<path d="M1855 257 l-20 -20 25 13 c32 16 33 17 23 23 -4 2 -17 -5 -28 -16z"/>
<path d="M1620 250 c8 -5 22 -10 30 -10 13 0 13 1 0 10 -8 5 -22 10 -30 10
-13 0 -13 -1 0 -10z"/>
<path d="M1070 240 c0 -6 4 -9 9 -6 5 4 12 1 14 -4 3 -6 4 -5 3 2 -3 15 -26
23 -26 8z"/>
<path d="M1790 230 c-12 -8 -10 -10 8 -10 13 0 20 4 17 10 -7 12 -6 12 -25 0z"/>
<path d="M2349 190 c-18 -22 -36 -37 -42 -33 -6 4 -7 1 -2 -7 6 -10 14 -7 31
13 12 14 25 23 30 19 4 -4 4 -1 0 6 -4 6 -3 12 2 12 6 0 12 7 16 15 9 25 -1
17 -35 -25z"/>
<path d="M1755 211 c-3 -5 -2 -12 3 -15 5 -3 9 1 9 9 0 17 -3 19 -12 6z"/>
<path d="M1113 196 c0 -8 3 -14 7 -13 3 1 18 -11 32 -28 15 -16 29 -28 31 -25
3 3 -12 22 -32 43 -23 23 -38 32 -38 23z"/>
<path d="M1744 182 c4 -6 22 -19 39 -28 24 -11 27 -11 15 -1 -10 8 -14 18 -10
22 4 5 0 6 -9 2 -9 -3 -22 0 -29 6 -10 9 -11 9 -6 -1z"/>
<path d="M1705 170 c-3 -6 1 -7 9 -4 18 7 21 14 7 14 -6 0 -13 -4 -16 -10z"/>
<path d="M1640 140 c-13 -8 -13 -10 2 -10 9 0 20 5 23 10 8 13 -5 13 -25 0z"/>
<path d="M2265 131 c-3 -5 0 -13 6 -17 7 -4 9 -3 5 4 -3 5 0 13 6 15 9 4 10 6
1 6 -6 1 -14 -3 -18 -8z"/>
<path d="M1877 113 c-8 -12 30 -29 40 -19 4 3 -1 6 -9 6 -9 0 -18 5 -20 12 -3
9 -6 9 -11 1z"/>
<path d="M2230 116 c0 -2 7 -7 16 -10 8 -3 12 -2 9 4 -6 10 -25 14 -25 6z"/>
<path d="M1245 95 c17 -8 39 -14 50 -14 11 0 0 7 -25 15 -56 17 -64 17 -25 -1z"/>
<path d="M1540 90 c-21 -7 -21 -8 -5 -9 11 0 27 4 35 9 18 11 5 11 -30 0z"/>
<path d="M1330 79 c-12 -8 -10 -9 9 -4 17 5 22 4 16 -5 -5 -9 -4 -11 4 -6 6 4
9 12 6 17 -8 12 -16 11 -35 -2z"/>
<path d="M2188 83 c7 -3 16 -2 19 1 4 3 -2 6 -13 5 -11 0 -14 -3 -6 -6z"/>
<path d="M1468 68 c9 -9 15 -9 24 0 9 9 7 12 -12 12 -19 0 -21 -3 -12 -12z"/>
</g>
</svg>
