<?xml version="1.0" standalone="no"?>
<!DOCTYPE svg PUBLIC "-//W3C//DTD SVG 1.0//EN" "http://www.w3.org/TR/2001/REC-SVG-20010904/DTD/svg10.dtd">
<svg xmlns="http://www.w3.org/2000/svg" xmlns:xlink="http://www.w3.org/1999/xlink" id="body_1" width="17" height="17">

<g transform="matrix(0.049562685 0 0 0.049562685 -0 0.2973761)">
	<path  d="M161.056 114.09C 153.699 115.533 142.381 121.526 136.487 127.101C 121.291 141.472 115.514 161.315 120.97 180.394C 132.517 220.774 183.427 233.484 213.522 203.5C 239.38 177.739 231.308 132.779 198.157 117.925C 188.308 113.511 172.396 111.867 161.056 114.09M165.364 158.211C 164.682 159.306 164.202 162.193 163.987 166.5C 163.862 169.009 164.611 173.617 165.327 174.75C 165.85 175.576 168.77 176 173.937 176C 184.123 176 184.597 175.461 183.401 165.216L183.401 165.216L182.5 157.5L174.333 157.211C 168.489 157.004 165.938 157.288 165.364 158.211M171.235 161.046C 166.152 163.067 166.419 171.314 171.61 172.617C 174.832 173.426 179.293 170.951 180.427 167.726C 181.221 165.469 181.04 164.61 179.451 163.083C 176.905 160.638 174.045 159.929 171.235 161.046M152.608 164.726C 151.521 165.813 151.966 167.773 153.427 168.334C 155.798 169.243 157.2 166.606 155.057 165.268C 154.044 164.635 152.942 164.391 152.608 164.726M192.11 165.367C 191.246 166.409 191.346 167.042 192.53 168.025C 194.441 169.611 196.574 167.939 195.664 165.567C 194.923 163.637 193.608 163.563 192.11 165.367" stroke="none"  fill="#DDA570" fill-rule="nonzero" />
	<path  d="M161.056 114.09C 153.699 115.533 142.381 121.526 136.487 127.101C 121.291 141.472 115.514 161.315 120.97 180.394C 132.517 220.774 183.427 233.484 213.522 203.5C 239.38 177.739 231.308 132.779 198.157 117.925C 188.308 113.511 172.396 111.867 161.056 114.09M165.364 158.211C 164.682 159.306 164.202 162.193 163.987 166.5C 163.862 169.009 164.611 173.617 165.327 174.75C 165.85 175.576 168.77 176 173.937 176C 184.123 176 184.597 175.461 183.401 165.216L183.401 165.216L182.5 157.5L174.333 157.211C 168.489 157.004 165.938 157.288 165.364 158.211M171.235 161.046C 166.152 163.067 166.419 171.314 171.61 172.617C 174.832 173.426 179.293 170.951 180.427 167.726C 181.221 165.469 181.04 164.61 179.451 163.083C 176.905 160.638 174.045 159.929 171.235 161.046M152.608 164.726C 151.521 165.813 151.966 167.773 153.427 168.334C 155.798 169.243 157.2 166.606 155.057 165.268C 154.044 164.635 152.942 164.391 152.608 164.726M192.11 165.367C 191.246 166.409 191.346 167.042 192.53 168.025C 194.441 169.611 196.574 167.939 195.664 165.567C 194.923 163.637 193.608 163.563 192.11 165.367" stroke="none"  fill="#DDA570" fill-rule="nonzero" />
	<path  d="M134.638 7.1C 128.026 8.065 119.778 11.542 114.44 15.614C 110.54 18.588 103.259 28.261 100.412 34.25L100.412 34.25L98.63 38L89.543 38C 69.085 38 54.492 46.163 46.693 61.971C 43.747 67.942 43.474 69.349 43.168 80.147L43.168 80.147L42.836 91.852L33.551 97.392C 20.864 104.963 15.084 111.948 11.585 123.932C 8.288 135.229 10.283 146.772 17.625 158.864L17.625 158.864L22.182 166.37L20.029 169.935C 18.845 171.896 16.298 176.724 14.368 180.665C 4.196 201.435 12.635 224.872 34.313 236.054C 37.716 237.81 41.016 239.657 41.646 240.159C 42.347 240.717 42.938 245.618 43.169 252.786C 43.496 262.904 43.911 265.284 46.219 270.253C 51.553 281.734 63.823 291.473 76 293.889C 79.025 294.489 85.303 294.918 89.951 294.843C 94.599 294.767 98.544 295.133 98.718 295.655C 99.859 299.076 107.201 310.006 110.763 313.585C 115.783 318.629 123.698 323.337 130 325.028C 136.267 326.71 149.568 326.447 154.938 324.536C 157.379 323.667 162.554 321.12 166.438 318.876L166.438 318.876L173.5 314.797L183.5 319.931C 191.174 323.871 195.065 325.247 200.23 325.851C 209.919 326.984 218.053 325.741 225.751 321.951C 233.961 317.909 239.448 312.498 245.042 302.925C 247.428 298.841 249.536 295.296 249.727 295.047C 249.917 294.797 253.544 294.703 257.787 294.838C 277.922 295.475 293.565 286.924 301.256 271.074C 304.192 265.023 304.476 263.544 304.83 252.5L304.83 252.5L305.214 240.5L313.357 236C 322.114 231.161 329.928 224.03 332.914 218.154C 336.425 211.242 338.311 202.406 337.7 195.736C 336.913 187.151 335.754 183.753 330.456 174.5C 326.053 166.809 325.937 166.403 327.466 164C 337.159 148.763 339.978 136.141 336.415 123.932C 332.906 111.912 327.14 104.965 314.498 97.524L314.498 97.524L305.212 92.06L304.792 80.28C 304.291 66.266 302.045 60.169 294.353 51.946C 285.434 42.411 277.309 39.042 261.05 38.137L261.05 38.137L249.6 37.5L246.05 31.358C 237.53 16.617 227.065 8.964 213 7.188C 200.281 5.581 195.366 6.622 182.276 13.692L182.276 13.692L174.052 18.133L165.776 13.678C 153.367 6.999 145.998 5.442 134.638 7.1M132.925 12.368C 121.857 14.751 113.104 21.834 106.22 33.978L106.22 33.978L103.94 38L121.546 38L139.151 38L145.826 34.113C 149.496 31.975 154.3 29.23 156.5 28.013C 158.7 26.796 162.188 24.862 164.25 23.716C 166.313 22.57 168 21.359 168 21.026C 168 19.701 154.178 13.142 149.201 12.104C 142.782 10.767 140.165 10.809 132.925 12.368M196.966 12.367C 192.234 13.74 180.032 20.042 180.012 21.123C 180.005 21.466 186.55 25.413 194.556 29.896L194.556 29.896L209.112 38.046L226.557 37.773L244.002 37.5L239.176 29.969C 234.066 21.996 227.982 16.777 220.184 13.678C 214.374 11.37 202.677 10.709 196.966 12.367M162.04 30.509C 155.737 34.09 150.247 37.353 149.839 37.76C 149.432 38.167 160.101 38.5 173.549 38.5C 186.996 38.5 197.999 38.237 198 37.916C 198 37.335 177.85 25.638 174.996 24.562C 174.165 24.249 168.408 26.891 162.04 30.509M73.3 44.862C 64.121 48.034 55.293 55.55 51.167 63.705C 48.68 68.62 47 76.663 47 83.656C 47 90.316 45.579 90.602 64.094 80.217C 75.696 73.709 78.203 71.873 80.096 68.5C 81.33 66.3 84.723 60.562 87.636 55.748C 96.256 41.502 96.356 42.995 86.785 43.033C 81.486 43.054 76.626 43.713 73.3 44.862M98.228 47.75C 96.589 50.362 93.991 54.75 92.455 57.5C 90.919 60.25 88.991 63.29 88.17 64.256C 87.35 65.222 86.886 66.219 87.139 66.473C 87.393 66.726 93.652 63.533 101.05 59.378C 108.447 55.222 116.975 50.447 120 48.766C 130.771 42.78 130.949 43 115.327 43L115.327 43L101.208 43L98.228 47.75M123 52.63C 113.925 57.819 105.825 62.361 105 62.724C 104.175 63.086 101.025 64.825 98 66.587C 94.975 68.349 90.025 71.151 87 72.813C 83.206 74.897 80.696 77.179 78.909 80.167C 77.484 82.55 72.357 91.25 67.515 99.5C 62.674 107.75 56.19 118.55 53.106 123.5L53.106 123.5L47.5 132.5L47.211 165.318C 46.977 191.901 47.187 198.647 48.319 200.818C 49.088 202.293 54.808 212.05 61.032 222.5C 67.255 232.95 74.33 244.966 76.753 249.202C 80.667 256.045 81.847 257.284 87.329 260.314C 99.651 267.123 103.618 269.344 110 273.009C 113.575 275.061 121.71 279.724 128.078 283.37L128.078 283.37L139.657 290L174.078 289.996C 205.58 289.993 208.755 289.838 211.5 288.175C 213.15 287.175 216.975 284.976 220 283.288C 242.899 270.513 254.717 263.856 256 263.008C 256.825 262.464 259.54 260.93 262.034 259.601C 266.213 257.374 267.5 255.593 278.469 236.843C 285.014 225.654 292.783 212.458 295.734 207.518L295.734 207.518L301.099 198.535L300.8 166.018L300.5 133.5L290 115.748C 284.225 105.984 279.05 97.192 278.5 96.209C 270.935 82.694 266.146 75.58 264.002 74.672C 262.626 74.09 260.825 73.068 260 72.402C 259.175 71.736 255.8 69.782 252.5 68.062C 249.2 66.341 245.825 64.499 245 63.969C 244.175 63.439 240.575 61.373 237 59.379C 223.086 51.618 221.29 50.604 214.826 46.863L214.826 46.863L208.151 43L173.826 43.098L139.5 43.196L123 52.63M220.527 44.33C 221.612 45.061 224.975 47.027 228 48.698C 231.025 50.369 239.259 54.999 246.299 58.986C 253.338 62.974 259.336 65.997 259.629 65.705C 259.921 65.413 257.424 60.546 254.08 54.89C 250.736 49.235 248 44.245 248 43.804C 248 43.362 241.375 43 233.277 43C 220.706 43 218.843 43.194 220.527 44.33M255.667 47.806C 257.225 50.449 261.132 57.099 264.349 62.584C 270.648 73.323 269.444 72.303 287 81.783C 290.575 83.714 294.175 85.849 295 86.528C 295.825 87.208 297.536 88.08 298.803 88.466L298.803 88.466L301.105 89.168L300.449 80.334C 299.383 66.002 294.555 56.651 284.758 49.944C 277.647 45.076 270.802 43.07 261.167 43.033L261.167 43.033L252.835 43L255.667 47.806M58.831 88.646L47.162 95.184L47.058 109.315C 46.997 117.571 47.322 123.041 47.839 122.473C 48.702 121.524 68.577 88.527 70.902 84.183C 71.545 82.982 71.717 82.024 71.285 82.053C 70.853 82.083 65.249 85.049 58.831 88.646M277.125 84.25C 277.783 85.487 279.313 88.075 280.526 90C 281.738 91.925 286.676 100.138 291.498 108.25C 296.32 116.362 300.387 123 300.535 123C 300.684 123 300.866 116.967 300.94 109.594L300.94 109.594L301.074 96.189L298.287 94.226C 294.794 91.766 277.453 82 276.578 82C 276.221 82 276.468 83.013 277.125 84.25M35.5 101.776C 28.602 105.461 21.915 112.413 18.431 119.522C 15.811 124.865 15.501 126.51 15.51 135C 15.52 144.357 15.588 144.624 20.01 152.749C 22.48 157.286 24.751 160.998 25.058 160.999C 25.581 161 37.165 141.618 41.171 134.039C 42.72 131.108 43 128.158 43 114.789C 43 102.797 42.699 99.013 41.75 99.052C 41.063 99.081 38.25 100.306 35.5 101.776M305 115.161L305 131.321L311.851 142.911C 315.619 149.285 319.541 155.963 320.566 157.75C 321.592 159.537 322.698 161 323.023 161C 323.348 161 325.609 157.287 328.047 152.75C 332.397 144.654 332.48 144.322 332.49 135C 332.501 124.242 330.724 119.03 324.422 111.339C 321.208 107.417 308.693 99 306.076 99C 305.353 99 305 104.297 305 115.161M35.145 154.168L27.945 166.336L33.149 175.418C 36.01 180.413 39.398 186.067 40.676 187.982L40.676 187.982L43 191.464L43 166.732C 43 153.129 42.853 142 42.673 142C 42.493 142 39.106 147.476 35.145 154.168M305 166.333C 305 179.9 305.188 191 305.418 191C 305.648 191 308.491 186.387 311.735 180.75C 314.98 175.113 318.213 169.586 318.921 168.468C 320.069 166.657 319.426 165.137 312.997 154.468C 309.031 147.886 305.609 142.313 305.393 142.083C 305.177 141.854 305 152.767 305 166.333M19.861 180.25C 15.598 188.315 15.5 188.713 15.501 198C 15.502 208.757 17.285 213.981 23.578 221.661C 26.888 225.7 39.151 234 41.808 234C 42.68 234 43 229.752 43 218.157C 43 200.295 44.059 203.687 32.042 183.076C 28.489 176.984 25.277 172 24.903 172C 24.529 172 22.26 175.713 19.861 180.25M313.745 186.92L305 201.841L305 218.488L305 235.135L311.214 231.818C 319.354 227.472 326.474 220.359 329.812 213.236C 332.142 208.264 332.499 206.234 332.49 198C 332.48 188.643 332.412 188.376 327.99 180.251C 325.52 175.714 323.273 172.002 322.995 172.001C 322.717 172 318.555 178.714 313.745 186.92M47.015 223.25C 47.024 230.537 47.361 236.964 47.765 237.53C 48.474 238.525 70.348 251 71.382 251C 71.988 251 68.403 244.616 56.64 224.75C 51.836 216.637 47.702 210 47.453 210C 47.204 210 47.007 215.963 47.015 223.25M293.108 222C 289.043 228.875 283.565 238.097 280.936 242.494C 278.306 246.891 276.309 250.642 276.498 250.831C 277.021 251.354 298.656 239.12 299.937 237.576C 300.677 236.685 300.964 231.667 300.78 222.862L300.78 222.862L300.5 209.5L293.108 222M47.012 250.143C 47.035 262.41 51.139 272.187 59.504 279.897C 66.935 286.747 73.698 289.341 85.407 289.831L85.407 289.831L95.315 290.245L93.292 286.873C 92.179 285.018 88.65 279 85.448 273.5C 82.247 268 78.996 262.746 78.226 261.824C 76.903 260.243 52.51 245.86 48.75 244.445C 47.197 243.86 47.001 244.502 47.012 250.143M284.939 252.25L270.5 260.5L261.734 275L252.967 289.5L260.577 289.794C 269.9 290.154 276.721 288.318 284.077 283.47C 290.986 278.916 296.45 271.519 298.998 263.271C 300.978 256.86 301.773 244 300.189 244C 299.742 244 292.88 247.713 284.939 252.25M89.511 270.652C 91.06 273.318 94.232 278.65 96.56 282.5L96.56 282.5L100.793 289.5L115.146 289.708C 124.958 289.85 129.025 289.601 128 288.919C 125.772 287.438 95.118 270.141 90.597 267.813L90.597 267.813L86.695 265.804L89.511 270.652M253.821 269.778C 250.148 271.825 243.623 275.489 239.321 277.921C 235.02 280.353 228.575 283.953 225 285.921L225 285.921L218.5 289.5L231.95 289.78C 239.347 289.935 245.901 289.868 246.515 289.633C 247.352 289.311 256.973 273.813 260.72 266.75C 261.312 265.634 261.062 265.743 253.821 269.778M107.241 295L103.983 295.5L108.805 303C 114.102 311.24 118.096 314.755 126.765 318.802C 131.7 321.107 133.782 321.476 141.696 321.451C 150.537 321.424 151.223 321.255 159.446 317.085C 164.151 314.7 168 312.443 168 312.07C 168 311.697 161.363 307.623 153.25 303.016L153.25 303.016L138.5 294.64L124.5 294.57C 116.8 294.531 109.034 294.725 107.241 295M150.285 295.621C 150.953 296.238 153.975 298.078 157 299.711C 160.025 301.343 165.099 304.151 168.275 305.949L168.275 305.949L174.051 309.219L182.775 304.225C 187.574 301.479 192.963 298.493 194.75 297.59C 196.537 296.687 197.999 295.623 197.998 295.224C 197.997 294.826 186.988 294.5 173.533 294.5C 155.405 294.5 149.384 294.79 150.285 295.621M214 295.048C 208.463 295.514 206.166 296.382 198.5 300.902C 193.55 303.821 187.363 307.295 184.75 308.621C 182.137 309.948 180 311.392 180 311.831C 180 313.419 193.152 319.89 198.736 321.049C 213.701 324.156 229.35 317.774 237.938 305.063C 245.232 294.267 245.729 295.163 232.254 294.809C 225.789 294.639 217.575 294.747 214 295.048" stroke="none"  fill="#469573" fill-rule="nonzero" />
</g>
</svg>
